<?xml version="1.0" encoding="UTF-8" standalone="no"?>
<svg width="130px" height="386px" viewBox="0 0 130 386" version="1.1" xmlns="http://www.w3.org/2000/svg" xmlns:xlink="http://www.w3.org/1999/xlink" xmlns:sketch="http://www.bohemiancoding.com/sketch/ns">
    <!-- Generator: Sketch 3.2.2 (9983) - http://www.bohemiancoding.com/sketch -->
    <title>WindMobile-round</title>
    <desc>Created with Sketch.</desc>
    <defs></defs>
    <g id="Page-1" stroke="none" stroke-width="1" fill="none" fill-rule="evenodd" sketch:type="MSPage">
        <g id="Round" sketch:type="MSLayerGroup" transform="translate(15.000000, 7.000000)" fill="#FF0000">
            <path d="M43.3351216,160.552756 L45,54.5 L0,77 L50,0 L100,77 L55,54.4990234 L56.6648887,160.552758 C75.5838524,163.725879 90,180.179404 90,200 C90,219.38703 76.2076466,235.552684 57.8998502,239.220051 L60,373 L40,373 L42.1001562,239.220052 C23.7923566,235.552688 10,219.387033 10,200 C10,180.1794 24.4161528,163.725873 43.3351216,160.552756 L43.3351216,160.552756 Z M50,220 C61.045695,220 70,211.045695 70,200 C70,188.954305 61.045695,180 50,180 C38.954305,180 30,188.954305 30,200 C30,211.045695 38.954305,220 50,220 Z" id="Path-1" sketch:type="MSShapeGroup"></path>
        </g>
    </g>
</svg>