<?xml version="1.0" encoding="UTF-8" standalone="no"?>
<svg width="130px" height="386px" viewBox="0 0 130 386" version="1.1" xmlns="http://www.w3.org/2000/svg" xmlns:xlink="http://www.w3.org/1999/xlink" xmlns:sketch="http://www.bohemiancoding.com/sketch/ns">
    <!-- Generator: Sketch 3.2.2 (9983) - http://www.bohemiancoding.com/sketch -->
    <title>WindMobile-round</title>
    <desc>Created with Sketch.</desc>
    <defs></defs>
    <g id="Page-1" stroke="none" stroke-width="1" fill="none" fill-rule="evenodd" sketch:type="MSPage">
        <g id="Triangle" sketch:type="MSLayerGroup" transform="translate(10.000000, 6.000000)" fill="#FF0000">
            <path d="M48.4905522,150.651824 L50,54.5 L5,77 L55,0 L105,77 L60,54.4990234 L61.5094588,150.651842 L110,230 L62.7551089,230 L65,373 L45,373 L47.244898,230 L0,230 L48.4905522,150.651824 L48.4905522,150.651824 Z M55,220 C66.045695,220 75,211.045695 75,200 C75,188.954305 66.045695,180 55,180 C43.954305,180 35,188.954305 35,200 C35,211.045695 43.954305,220 55,220 Z" id="Path-1" sketch:type="MSShapeGroup"></path>
        </g>
    </g>
</svg>