<?xml version="1.0" encoding="UTF-8" standalone="no"?>
<svg width="130px" height="386px" viewBox="0 0 130 386" version="1.1" xmlns="http://www.w3.org/2000/svg" xmlns:xlink="http://www.w3.org/1999/xlink" xmlns:sketch="http://www.bohemiancoding.com/sketch/ns">
    <!-- Generator: Sketch 3.2.2 (9983) - http://www.bohemiancoding.com/sketch -->
    <title>WindMobile-round</title>
    <desc>Created with Sketch.</desc>
    <defs></defs>
    <g id="Page-1" stroke="none" stroke-width="1" fill="none" fill-rule="evenodd" sketch:type="MSPage">
        <g id="Square" sketch:type="MSLayerGroup" transform="translate(15.000000, 7.000000)" fill="#FF0000">
            <path d="M43.3437991,160 L45,54.5 L0,77 L50,0 L100,77 L55,54.4990234 L56.6562112,160 L90,160 L90,240 L57.9120943,240 L60,373 L40,373 L42.0879121,240 L10,240 L10,160 L43.3437991,160 L43.3437991,160 Z M50,220 C61.045695,220 70,211.045695 70,200 C70,188.954305 61.045695,180 50,180 C38.954305,180 30,188.954305 30,200 C30,211.045695 38.954305,220 50,220 Z" id="Path-1" sketch:type="MSShapeGroup"></path>
        </g>
    </g>
</svg>