<?xml version="1.0" encoding="UTF-8" standalone="no"?>
<svg width="130px" height="386px" viewBox="0 0 130 386" version="1.1" xmlns="http://www.w3.org/2000/svg" xmlns:xlink="http://www.w3.org/1999/xlink" xmlns:sketch="http://www.bohemiancoding.com/sketch/ns">
    <!-- Generator: Sketch 3.2.2 (9983) - http://www.bohemiancoding.com/sketch -->
    <title>WindMobile-round</title>
    <desc>Created with Sketch.</desc>
    <defs></defs>
    <g id="Page-1" stroke="none" stroke-width="1" fill="none" fill-rule="evenodd" sketch:type="MSPage">
        <g id="Landing" sketch:type="MSLayerGroup" transform="translate(8.000000, 7.000000)" fill="#FF0000">
            <path d="M63.7365294,165.116284 L62,54.4990234 L107,77 L57,0 L7,77 L52,54.5 L50.2655992,164.981328 L50.2655992,164.981328 L29.2842712,144 L1,172.284271 L28.7842712,200.068542 L1.42108547e-14,228.852814 L28.2842712,257.137085 L49.1463899,236.274966 L47,373 L67,373 L64.8514305,236.135702 L85.8528137,257.137085 L114.137085,228.852814 L85.3528137,200.068542 L113.137085,172.284271 L84.8528137,144 L63.7365294,165.116284 L63.7365294,165.116284 Z M57,220 C68.045695,220 77,211.045695 77,200 C77,188.954305 68.045695,180 57,180 C45.954305,180 37,188.954305 37,200 C37,211.045695 45.954305,220 57,220 Z" id="Path-1" sketch:type="MSShapeGroup"></path>
        </g>
    </g>
</svg>